<?xml version="1.0" encoding="utf-8"?>
<!-- Generator: Adobe Illustrator 28.0.0, SVG Export Plug-In . SVG Version: 6.00 Build 0)  -->
<svg version="1.1" xmlns="http://www.w3.org/2000/svg" xmlns:xlink="http://www.w3.org/1999/xlink" x="0px" y="0px"
	 viewBox="0 0 511 590.1" style="enable-background:new 0 0 511 590.1;" xml:space="preserve">
<style type="text/css">
	.st0{fill:#F2F2F2;}
	.st1{fill:none;stroke:#FFFFFF;stroke-width:17.0079;stroke-miterlimit:11.3386;}
	.st2{fill:none;stroke:#006699;stroke-width:17.0079;stroke-miterlimit:11.3386;}
	.st3{fill:none;stroke:#FFFFFF;stroke-width:5;stroke-miterlimit:11.3386;}
	.st4{fill:#333333;stroke:#333333;stroke-width:2;stroke-miterlimit:11.3386;}
	.st5{fill:#A1BEE6;}
	.st6{fill:#006699;}
	.st7{opacity:0.3;fill:#FFFFFF;}
</style>
<g id="Border">
	<path class="st0" d="M255.5,580.3L8.5,437.7V152.5l247-142.7l247,142.6v285.2L255.5,580.3z"/>
	<path class="st1" d="M255.5,578l-245-141.4V153.7l245-141.5l245,141.4v282.9L255.5,578z"/>
	<path class="st2" d="M255.5,580.3L8.5,437.7V152.5l247-142.7l247,142.6v285.2L255.5,580.3z"/>
</g>
<g id="Text_00000041283610292869131430000002032744997821668490_">
	<g>
		<g>
			<path class="st3" d="M108.5,139c0,4.6-2.5,6.8-7.6,6.8c-5.2,0-7.7-2.3-7.7-6.8c0-2,0.8-3.7,2.4-5.1c1.5-1.3,3.3-1.9,5.3-1.9
				c2.1,0,3.9,0.6,5.4,1.9C107.8,135.3,108.5,136.9,108.5,139z M108.1,154.1c0,2.9-0.2,7.2-0.5,12.9c-0.4,5.8-0.5,10.1-0.5,13
				c0,2.7,0.1,6.8,0.2,12.2s0.2,9.4,0.2,12.1c0,0.8-0.3,1.2-1,1.2H95.6c-0.8,0-1.2-0.8-1.2-2.3c0-2.6,0.1-6.4,0.2-11.6
				c0.1-5.1,0.2-9,0.2-11.6c0-2.9-0.2-7.2-0.6-13c-0.4-5.8-0.6-10.1-0.6-13c0-0.6,0.4-0.9,1.2-0.9c0.7,0,1.7,0.1,3.1,0.3
				c1.4,0.2,2.4,0.3,3.1,0.3c0.7,0,1.8-0.1,3.1-0.3c1.4-0.2,2.4-0.3,3.1-0.3C107.8,153,108.1,153.4,108.1,154.1z"/>
			<path class="st3" d="M168.2,204.4c0,0.8-0.4,1.2-1.1,1.2c-1.2,0-3.1,0-5.5-0.1c-2.4,0-4.3-0.1-5.5-0.1c-0.7,0-1-0.5-1-1.6
				c0-1.8,0.1-4.6,0.2-8.3c0.1-3.7,0.2-6.5,0.2-8.3c0-1.5,0-3.7-0.1-6.7c0-3-0.1-5.2-0.1-6.7c0-4.2-0.6-7.2-1.8-9
				c-1.5-2.1-4.2-3.1-8.2-3.1c-1.9,0-4.4,1-7.7,3.1c-3.5,2.2-5.2,4.1-5.2,5.8v33.4c0,0.9-0.4,1.4-1.1,1.4c-1.2,0-3,0-5.3-0.1
				c-2.4,0-4.2-0.1-5.3-0.1c-0.8,0-1.2-0.4-1.2-1.3c0-2.9,0-7.3,0.1-13.2c0.1-5.9,0.1-10.3,0.1-13.2c0-7.9-0.8-15.2-2.5-21.9
				c-0.1-0.3-0.2-0.6-0.2-0.7c0-0.4,0.2-0.6,0.7-0.8c0.3,0,2.4-0.4,6.4-1c4-0.6,6.1-1,6.3-1c0.2,0,0.4,0.3,0.4,0.9
				c0.2,2.3,0.6,4.6,1.3,7c1.9-1.5,4.5-3.4,7.6-5.7c3.9-2.4,7.7-3.6,11.3-3.6c7,0,11.7,2,14.3,6.1c1.9,3,2.8,7.8,2.8,14.4
				c0,1.2,0,2.9-0.1,5.3c-0.1,2.4-0.1,4.2-0.1,5.3c0,2.5,0,6.2,0.1,11.1C168.2,198.2,168.2,201.9,168.2,204.4z"/>
			<path class="st3" d="M192.9,128.3l-0.1,0.7c-0.8,13.8-1.2,25.7-1.2,35.6c0,4.4,0.1,11,0.2,19.8c0.1,8.8,0.2,15.4,0.2,19.8
				c0,0.9-0.3,1.3-0.9,1.3h-10.6c-0.7,0-1-0.4-1-1.3c0-4.4,0-11,0.1-19.8c0.1-8.8,0.1-15.4,0.1-19.8c0-4-0.2-10-0.6-18.1
				c-0.4-8-0.6-14-0.6-18c0-0.7,0.4-1.1,1.2-1.1c0.7,0,1.7,0.1,3,0.2s2.3,0.2,3,0.2c0.7,0,1.7-0.1,3.1-0.2c1.4-0.1,2.4-0.2,3.1-0.2
				S192.9,127.7,192.9,128.3z"/>
			<path class="st3" d="M259.5,178.8c0,7.5-2.4,14-7.1,19.5c-5,5.8-11.2,8.7-18.5,8.7c-4.6,0-8.6-1.4-12.1-4.3
				c-1.6-1.4-3.1-2.9-4.7-4.4c-0.2,0.1-0.4,0.4-0.4,0.9c0,0.2-0.1,2.3-0.1,6.2l-0.1,15.7c0,1.2-0.4,1.8-1.3,1.8
				c-5.7,0-9.1-0.1-10.1-0.2c-0.9-0.1-1.3-0.6-1.3-1.4c0-4.8,0-11.9,0.1-21.4c0.1-9.5,0.1-16.6,0.1-21.4c0-8.7-0.6-16.9-1.7-24.5
				c-0.1-0.4-0.1-0.7-0.1-0.9c0-0.4,0.2-0.7,0.6-0.8c1.4-0.1,3.5-0.3,6.2-0.6c3.6-0.7,5.7-1,6.1-1c0.6,0,1,1.1,1.2,3.3
				c0.1,1.5,0.2,3,0.3,4.4c0,0.3,0.1,0.6,0.3,0.9c0.3-0.1,0.6-0.4,0.9-0.8c5.2-5.3,10.4-8,15.8-8c7.3,0,13.5,2.9,18.6,8.6
				C257.1,164.8,259.5,171.3,259.5,178.8z M246.5,178.5c0-4.5-1.4-8.4-4.2-11.7c-2.9-3.6-6.6-5.4-11-5.4c-4.3,0-7.8,1.9-10.6,5.6
				c-2.5,3.3-3.8,7.2-3.8,11.7c0,4.5,1.3,8.5,3.9,11.8c2.9,3.6,6.5,5.4,10.9,5.4c4.2,0,7.8-1.9,10.7-5.6
				C245.2,186.7,246.5,182.9,246.5,178.5z"/>
			<path class="st3" d="M319.7,155.1c0,2.7-0.1,6.8-0.3,12.3c-0.2,5.5-0.3,9.6-0.3,12.3c0,2.7,0.1,6.8,0.2,12.2
				c0.2,5.4,0.3,9.5,0.3,12.2c0,0.7-0.4,1.2-1.1,1.4c-0.3,0.1-4.1,0.1-11.3,0.1c-0.4,0-0.7-1.4-0.8-4.2s-0.3-4.2-0.6-4.2
				c-0.2,0-0.5,0.2-0.8,0.5c-6.2,5.4-12.3,8.1-18.4,8.1c-8.2,0-13.6-3-16.3-8.9c-1.6-3.7-2.4-10.3-2.4-19.8c0-8.6,0.7-15.9,2.1-21.9
				c0.3-1.4,0.9-2.2,1.8-2.2c1.1,0,2.7,0,4.8,0.1c2.2,0,3.8,0.1,4.8,0.1c0.7,0,1.1,0.4,1.1,1.2c0,1.4-0.2,3.9-0.7,7.2
				c-0.5,3.6-0.8,6.1-0.8,7.6c-0.1,2.2-0.2,4.7-0.2,7.3c0,6.5,0.5,10.9,1.4,13.1c1.6,4,5.1,6,10.6,6c2.3,0,5.1-1.1,8.3-3.5
				c3.4-2.4,5.1-4.7,5.2-7c0.2-2.8,0.3-12.6,0.3-29.4c0-1.8,0.8-2.7,2.3-2.7h9.2C319.2,153.1,319.7,153.8,319.7,155.1z"/>
			<path class="st3" d="M386.3,178.7c0,7.3-2.3,13.7-6.8,19.2c-4.9,5.8-10.9,8.7-18.1,8.7c-4.8,0-9.1-1.2-12.7-3.7
				c-1.5-1.3-3-2.5-4.5-3.7c-0.4,0.1-0.7,1.2-0.8,3.3c-0.1,2.1-0.4,3.2-0.9,3.2h-11.7c-0.4,0-0.7-0.2-0.7-0.7c0,0,0-0.3,0.1-1
				c0.6-5.9,0.9-17.3,0.9-34.1c0-6.9-0.3-16.9-0.9-30.2c-0.4-8.5-0.6-12.2-0.6-11.1c0-1,0.5-1.5,1.4-1.6c1.3,0,3.3-0.1,6-0.2
				c0.5,0,1.6-0.2,3.2-0.4c1.3-0.2,2.4-0.3,3.2-0.3c0.6,0,0.9,0.4,0.9,1.3c0,1.3-0.1,3.2-0.3,5.8c-0.2,2.6-0.3,4.5-0.3,5.8
				c0,1.9-0.1,4.8-0.2,8.7c-0.2,3.9-0.3,6.8-0.3,8.7c0,1.4,0.3,2.1,0.8,2.1c0.3,0,0.5-0.2,0.8-0.6c4.1-5.1,9.5-7.6,16.2-7.6
				c7.7,0,13.9,2.9,18.6,8.6C384.1,164.2,386.3,170.8,386.3,178.7z M373.7,178.2c0-4.4-1.4-8.3-4.2-11.7c-3-3.6-6.6-5.4-11-5.4
				c-4.5,0-8.2,1.8-11.1,5.3c-2.9,3.3-4.3,7.3-4.3,11.8c0,4.6,1.4,8.6,4.3,11.9c3,3.5,6.7,5.2,11.2,5.2c4.4,0,8-1.8,11-5.4
				C372.4,186.6,373.7,182.6,373.7,178.2z"/>
			<path class="st3" d="M420.3,188.4c0,5.5-2.2,10-6.6,13.3c-4,3-8.9,4.6-14.6,4.6c-2.2,0-3.5-0.1-3.8-0.2c-0.6-0.3-0.9-1.2-0.9-2.7
				c0-0.8-0.1-2-0.3-3.7c-0.2-1.6-0.3-2.8-0.3-3.6c0-0.5,0.3-0.8,1-0.9c0.5-0.1,1.2-0.1,2.1,0c1.1,0.1,1.7,0.2,1.7,0.2
				c7,0,10.5-2.2,10.5-6.5c0-2-1.5-3.9-4.6-5.6c-5-2.7-7.9-4.4-8.6-5.1c-3.1-2.6-4.6-6.1-4.6-10.4c0-5.6,2.1-9.9,6.3-13
				c3.8-2.8,8.6-4.2,14.4-4.2c0.5,0,0.9,0.2,1.1,0.7c0.2,0.5,0.7,2,1.4,4.5c0.7,2.5,1,4,1,4.6c0,0.4-0.4,0.7-1.1,0.8
				c-2.4,0.3-4.8,0.6-7.2,0.9c-2.9,0.8-4.3,2.3-4.3,4.7c0,1.7,1.5,3.4,4.5,5.1c4.5,2.5,7.3,4.3,8.5,5.4
				C418.8,180.2,420.3,183.9,420.3,188.4z"/>
		</g>
		<g>
			<path class="st4" d="M108.5,139c0,4.6-2.5,6.8-7.6,6.8c-5.2,0-7.7-2.3-7.7-6.8c0-2,0.8-3.7,2.4-5.1c1.5-1.3,3.3-1.9,5.3-1.9
				c2.1,0,3.9,0.6,5.4,1.9C107.8,135.3,108.5,136.9,108.5,139z M108.1,154.1c0,2.9-0.2,7.2-0.5,12.9c-0.4,5.8-0.5,10.1-0.5,13
				c0,2.7,0.1,6.8,0.2,12.2s0.2,9.4,0.2,12.1c0,0.8-0.3,1.2-1,1.2H95.6c-0.8,0-1.2-0.8-1.2-2.3c0-2.6,0.1-6.4,0.2-11.6
				c0.1-5.1,0.2-9,0.2-11.6c0-2.9-0.2-7.2-0.6-13c-0.4-5.8-0.6-10.1-0.6-13c0-0.6,0.4-0.9,1.2-0.9c0.7,0,1.7,0.1,3.1,0.3
				c1.4,0.2,2.4,0.3,3.1,0.3c0.7,0,1.8-0.1,3.1-0.3c1.4-0.2,2.4-0.3,3.1-0.3C107.8,153,108.1,153.4,108.1,154.1z"/>
			<path class="st4" d="M168.2,204.4c0,0.8-0.4,1.2-1.1,1.2c-1.2,0-3.1,0-5.5-0.1c-2.4,0-4.3-0.1-5.5-0.1c-0.7,0-1-0.5-1-1.6
				c0-1.8,0.1-4.6,0.2-8.3c0.1-3.7,0.2-6.5,0.2-8.3c0-1.5,0-3.7-0.1-6.7c0-3-0.1-5.2-0.1-6.7c0-4.2-0.6-7.2-1.8-9
				c-1.5-2.1-4.2-3.1-8.2-3.1c-1.9,0-4.4,1-7.7,3.1c-3.5,2.2-5.2,4.1-5.2,5.8v33.4c0,0.9-0.4,1.4-1.1,1.4c-1.2,0-3,0-5.3-0.1
				c-2.4,0-4.2-0.1-5.3-0.1c-0.8,0-1.2-0.4-1.2-1.3c0-2.9,0-7.3,0.1-13.2c0.1-5.9,0.1-10.3,0.1-13.2c0-7.9-0.8-15.2-2.5-21.9
				c-0.1-0.3-0.2-0.6-0.2-0.7c0-0.4,0.2-0.6,0.7-0.8c0.3,0,2.4-0.4,6.4-1c4-0.6,6.1-1,6.3-1c0.2,0,0.4,0.3,0.4,0.9
				c0.2,2.3,0.6,4.6,1.3,7c1.9-1.5,4.5-3.4,7.6-5.7c3.9-2.4,7.7-3.6,11.3-3.6c7,0,11.7,2,14.3,6.1c1.9,3,2.8,7.8,2.8,14.4
				c0,1.2,0,2.9-0.1,5.3c-0.1,2.4-0.1,4.2-0.1,5.3c0,2.5,0,6.2,0.1,11.1C168.2,198.2,168.2,201.9,168.2,204.4z"/>
			<path class="st4" d="M192.9,128.3l-0.1,0.7c-0.8,13.8-1.2,25.7-1.2,35.6c0,4.4,0.1,11,0.2,19.8c0.1,8.8,0.2,15.4,0.2,19.8
				c0,0.9-0.3,1.3-0.9,1.3h-10.6c-0.7,0-1-0.4-1-1.3c0-4.4,0-11,0.1-19.8c0.1-8.8,0.1-15.4,0.1-19.8c0-4-0.2-10-0.6-18.1
				c-0.4-8-0.6-14-0.6-18c0-0.7,0.4-1.1,1.2-1.1c0.7,0,1.7,0.1,3,0.2s2.3,0.2,3,0.2c0.7,0,1.7-0.1,3.1-0.2c1.4-0.1,2.4-0.2,3.1-0.2
				S192.9,127.7,192.9,128.3z"/>
			<path class="st4" d="M259.5,178.8c0,7.5-2.4,14-7.1,19.5c-5,5.8-11.2,8.7-18.5,8.7c-4.6,0-8.6-1.4-12.1-4.3
				c-1.6-1.4-3.1-2.9-4.7-4.4c-0.2,0.1-0.4,0.4-0.4,0.9c0,0.2-0.1,2.3-0.1,6.2l-0.1,15.7c0,1.2-0.4,1.8-1.3,1.8
				c-5.7,0-9.1-0.1-10.1-0.2c-0.9-0.1-1.3-0.6-1.3-1.4c0-4.8,0-11.9,0.1-21.4c0.1-9.5,0.1-16.6,0.1-21.4c0-8.7-0.6-16.9-1.7-24.5
				c-0.1-0.4-0.1-0.7-0.1-0.9c0-0.4,0.2-0.7,0.6-0.8c1.4-0.1,3.5-0.3,6.2-0.6c3.6-0.7,5.7-1,6.1-1c0.6,0,1,1.1,1.2,3.3
				c0.1,1.5,0.2,3,0.3,4.4c0,0.3,0.1,0.6,0.3,0.9c0.3-0.1,0.6-0.4,0.9-0.8c5.2-5.3,10.4-8,15.8-8c7.3,0,13.5,2.9,18.6,8.6
				C257.1,164.8,259.5,171.3,259.5,178.8z M246.5,178.5c0-4.5-1.4-8.4-4.2-11.7c-2.9-3.6-6.6-5.4-11-5.4c-4.3,0-7.8,1.9-10.6,5.6
				c-2.5,3.3-3.8,7.2-3.8,11.7c0,4.5,1.3,8.5,3.9,11.8c2.9,3.6,6.5,5.4,10.9,5.4c4.2,0,7.8-1.9,10.7-5.6
				C245.2,186.7,246.5,182.9,246.5,178.5z"/>
			<path class="st4" d="M319.7,155.1c0,2.7-0.1,6.8-0.3,12.3c-0.2,5.5-0.3,9.6-0.3,12.3c0,2.7,0.1,6.8,0.2,12.2
				c0.2,5.4,0.3,9.5,0.3,12.2c0,0.7-0.4,1.2-1.1,1.4c-0.3,0.1-4.1,0.1-11.3,0.1c-0.4,0-0.7-1.4-0.8-4.2s-0.3-4.2-0.6-4.2
				c-0.2,0-0.5,0.2-0.8,0.5c-6.2,5.4-12.3,8.1-18.4,8.1c-8.2,0-13.6-3-16.3-8.9c-1.6-3.7-2.4-10.3-2.4-19.8c0-8.6,0.7-15.9,2.1-21.9
				c0.3-1.4,0.9-2.2,1.8-2.2c1.1,0,2.7,0,4.8,0.1c2.2,0,3.8,0.1,4.8,0.1c0.7,0,1.1,0.4,1.1,1.2c0,1.4-0.2,3.9-0.7,7.2
				c-0.5,3.6-0.8,6.1-0.8,7.6c-0.1,2.2-0.2,4.7-0.2,7.3c0,6.5,0.5,10.9,1.4,13.1c1.6,4,5.1,6,10.6,6c2.3,0,5.1-1.1,8.3-3.5
				c3.4-2.4,5.1-4.7,5.2-7c0.2-2.8,0.3-12.6,0.3-29.4c0-1.8,0.8-2.7,2.3-2.7h9.2C319.2,153.1,319.7,153.8,319.7,155.1z"/>
			<path class="st4" d="M386.3,178.7c0,7.3-2.3,13.7-6.8,19.2c-4.9,5.8-10.9,8.7-18.1,8.7c-4.8,0-9.1-1.2-12.7-3.7
				c-1.5-1.3-3-2.5-4.5-3.7c-0.4,0.1-0.7,1.2-0.8,3.3c-0.1,2.1-0.4,3.2-0.9,3.2h-11.7c-0.4,0-0.7-0.2-0.7-0.7c0,0,0-0.3,0.1-1
				c0.6-5.9,0.9-17.3,0.9-34.1c0-6.9-0.3-16.9-0.9-30.2c-0.4-8.5-0.6-12.2-0.6-11.1c0-1,0.5-1.5,1.4-1.6c1.3,0,3.3-0.1,6-0.2
				c0.5,0,1.6-0.2,3.2-0.4c1.3-0.2,2.4-0.3,3.2-0.3c0.6,0,0.9,0.4,0.9,1.3c0,1.3-0.1,3.2-0.3,5.8c-0.2,2.6-0.3,4.5-0.3,5.8
				c0,1.9-0.1,4.8-0.2,8.7c-0.2,3.9-0.3,6.8-0.3,8.7c0,1.4,0.3,2.1,0.8,2.1c0.3,0,0.5-0.2,0.8-0.6c4.1-5.1,9.5-7.6,16.2-7.6
				c7.7,0,13.9,2.9,18.6,8.6C384.1,164.2,386.3,170.8,386.3,178.7z M373.7,178.2c0-4.4-1.4-8.3-4.2-11.7c-3-3.6-6.6-5.4-11-5.4
				c-4.5,0-8.2,1.8-11.1,5.3c-2.9,3.3-4.3,7.3-4.3,11.8c0,4.6,1.4,8.6,4.3,11.9c3,3.5,6.7,5.2,11.2,5.2c4.4,0,8-1.8,11-5.4
				C372.4,186.6,373.7,182.6,373.7,178.2z"/>
			<path class="st4" d="M420.3,188.4c0,5.5-2.2,10-6.6,13.3c-4,3-8.9,4.6-14.6,4.6c-2.2,0-3.5-0.1-3.8-0.2c-0.6-0.3-0.9-1.2-0.9-2.7
				c0-0.8-0.1-2-0.3-3.7c-0.2-1.6-0.3-2.8-0.3-3.6c0-0.5,0.3-0.8,1-0.9c0.5-0.1,1.2-0.1,2.1,0c1.1,0.1,1.7,0.2,1.7,0.2
				c7,0,10.5-2.2,10.5-6.5c0-2-1.5-3.9-4.6-5.6c-5-2.7-7.9-4.4-8.6-5.1c-3.1-2.6-4.6-6.1-4.6-10.4c0-5.6,2.1-9.9,6.3-13
				c3.8-2.8,8.6-4.2,14.4-4.2c0.5,0,0.9,0.2,1.1,0.7c0.2,0.5,0.7,2,1.4,4.5c0.7,2.5,1,4,1,4.6c0,0.4-0.4,0.7-1.1,0.8
				c-2.4,0.3-4.8,0.6-7.2,0.9c-2.9,0.8-4.3,2.3-4.3,4.7c0,1.7,1.5,3.4,4.5,5.1c4.5,2.5,7.3,4.3,8.5,5.4
				C418.8,180.2,420.3,183.9,420.3,188.4z"/>
		</g>
	</g>
</g>
<g id="Icon">
	<polyline class="st5" points="309.1,277.2 214.8,317 248.4,334.2 349.5,294.8 309.1,277.2 	"/>
	<polyline class="st5" points="237.8,240.3 143.5,280.1 177.1,297.3 278.2,258 237.8,240.3 	"/>
	<path class="st6" d="M366.9,280.6c-1.8-1.4-4.1-1.7-6.2-0.8l-98.4,42.6c-4.3,1.9-9.6,2.8-15.1,2.8c-7.7,0-15.6-1.8-21.1-4.2
		c-2-0.8-3.6-1.8-4.8-2.6c0.4-0.2,0.9-0.4,1.5-0.7l89.5-38.7l13.4,5.7v-16.7c0-2.5-1.1-4.8-2.9-6.2c-1.8-1.4-4.1-1.7-6.1-0.8
		l-98.5,42.6c-3,1.2-5.6,2.7-7.9,4.9c-2.2,2.1-4,5.6-4,9.5c0,0.1,0,0.3,0,0.3v150c0,0.1,0,0.1,0,0.2c0,0.1,0,0.1,0,0.1v0.2h0
		c0.2,5.3,2.9,8.7,5.4,10.9c7.9,7,21.3,10.9,35.5,11.2c6.7,0,13.5-1.1,19.9-3.7l98.4-42.6c2.6-1.1,4.3-3.9,4.3-7V286.8
		C369.8,284.3,368.7,282,366.9,280.6"/>
	<path class="st6" d="M304.5,252c-0.2-2.2-1.1-4.4-2.8-5.7c-1.8-1.4-4.1-1.7-6.2-0.8l-98.4,42.6c-4.3,1.8-9.6,2.8-15.1,2.8
		c-7.7,0-15.6-1.8-21.1-4.2c-2-0.8-3.6-1.8-4.8-2.6c0.4-0.2,0.9-0.4,1.5-0.7l89.5-38.7l13.3,5.7v-16.7c0-2.5-1.1-4.8-2.9-6.2
		c-1.8-1.4-4.1-1.7-6.2-0.8l-98.4,42.6c-3,1.2-5.6,2.7-7.8,4.9c-2.2,2.1-4,5.6-4,9.5c0,0.1,0,0.3,0,0.3v150c0,0.1,0,0.1,0,0.2
		c0,0,0,0.1,0,0.2v0.2h0c0.2,5.3,2.9,8.7,5.4,10.9c7.9,7,21.3,10.8,35.5,11.2c3.8,0,7.7-0.5,11.5-1.2V318.1
		c-0.1-7.1,2.7-14,7.8-18.9c3.2-3.2,7.2-5.7,12.1-7.7L304.5,252"/>
	<path id="waves_00000033348108935680117100000002218365642201774732_" class="st7" d="M290,376.5l0.3,0.2
		c9.1,3.8,18.9-1.1,26.4-9.3c4.7-5.1,26.1-28.4,38.1-41.5v-8L264.9,356v21.2C270.4,373.9,279.2,371.1,290,376.5 M323.8,397.4
		l-10.6-5.7c-1.5-0.7-2.8-1.2-3-1.3c-8.7-2.4-16.8,2.9-20.3,5.7c-1.1,0.9-2.1,1.9-2.8,2.6l-22.2,24.2v26.9l89.9-38.2v-19.3
		C352.8,394.4,340.7,406.2,323.8,397.4 M289.2,379.3c-0.5-0.2-1-0.5-1.5-0.7c-10.6-3.7-20.6,4.6-22.8,6.5v9.2l5.2-5.7
		c0,0,8-9.3,20.5-8.5L289.2,379.3 M301.6,385.9c-0.5-0.2-0.9-0.4-1.4-0.7c-9.4-4-18.5,1.9-22.3,4.9c-1.1,0.9-2.1,1.9-2.8,2.7
		l-10.1,11.1v9.5l17-18.6c0,0,7.9-9.2,20.3-8.6L301.6,385.9 M354.8,373.3c-3.5,3.9-7.1,7.8-8.6,9.4c-3.2,3.5-10.6,11.9-22.9,11.3
		l1.4,0.8c0.5,0.3,1.2,0.5,1.9,0.8c8.8,2.9,18.3-2.1,25.4-9.8c1-1.1,1.9-2,2.7-3L354.8,373.3 M354.8,354.3
		c-7.8,8.5-18.2,20-20.2,22.2c-3.2,3.5-10.7,12.1-22.8,11.4l1.4,0.7c0.2,0.1,0.3,0.2,0.5,0.2l0,0l0,0c9.4,3.9,19.7-1.6,26.7-9.4
		c4-4.4,9.7-10.6,14.4-15.8L354.8,354.3 M354.8,335.3c-11.2,12.3-29.6,32.4-31.8,34.8c-3.2,3.5-10.8,12.2-22.7,11.6l1.4,0.8
		c0.9,0.4,2,0.9,3.2,1.2c8.2,1.8,16.9-2.8,23.9-10.5c5-5.5,17.5-19,25.9-28.3V335.3"/>
</g>
</svg>
